# xmcd
#
# Track frame offsets: 
#        150
#        21180
#        38297
#        61186
#        93767
#        114527
#        131885
#        148807
#        171975
#        188074
#        213429
#        219892
#        248720
#
# Disc length: 3709 seconds
#
# Revision: 0
# Processed by: cddbd v1.5.2PL0 Copyright (c) Steve Scherf et al.
# Submitted via: ExactAudioCopy v0.99pb4
#
DISCID=b10e7b0d
DTITLE=Bleu Edmondson - Live at Billy Bob's Texas
DYEAR=2008
DGENRE=Country Rock
TTITLE0=American Saint
TTITLE1=Jesus Is Crying 
TTITLE2=Last Call
TTITLE3=Southland 
TTITLE4=Back To You
TTITLE5=Travelin' Man 
TTITLE6=Last Last Time 
TTITLE7=Echo (Maybe Tonight) 
TTITLE8=Don't Fade Away 
TTITLE9=50 Dollars and a Flask of Crown
TTITLE10=Finger on the Trigger (Intro) 
TTITLE11=Finger on the Trigger
TTITLE12=Resurrection 
EXTD=
EXTT0=
EXTT1=
EXTT2=
EXTT3=
EXTT4=
EXTT5=
EXTT6=
EXTT7=
EXTT8=
EXTT9=
EXTT10=
EXTT11=
EXTT12=
PLAYORDER=
